<?xml version="1.0" encoding="UTF-8" standalone="no"?>
<!DOCTYPE svg PUBLIC "-//W3C//DTD SVG 1.1//EN" "http://www.w3.org/Graphics/SVG/1.1/DTD/svg11.dtd">
<svg width="100%" height="100%" viewBox="0 0 397 534" version="1.1" xmlns="http://www.w3.org/2000/svg" xmlns:xlink="http://www.w3.org/1999/xlink" xml:space="preserve" xmlns:serif="http://www.serif.com/" style="fill-rule:evenodd;clip-rule:evenodd;stroke-linejoin:round;stroke-miterlimit:2;">
    <g id="Artboard1" transform="matrix(8.6087,0,0,17,2.69005,14.223)">
        <rect x="-0.312" y="-0.837" width="46.082" height="31.389" style="fill:none;"/>
    </g>
    <g transform="matrix(1,0,0,1,-185.999,20.3678)">
        <path d="M383.037,110.597L531.448,196.282L531.448,367.654L383.037,453.339L234.625,367.654L234.625,196.282L383.037,110.597ZM272.302,275.657L287.356,229.187C322.044,241.405 347.242,251.986 362.95,260.931C358.805,221.443 356.623,194.281 356.405,179.446L403.856,179.446C403.202,201.044 400.693,228.097 396.33,260.603C418.801,249.259 444.544,238.787 473.56,229.187L488.614,275.657C460.907,284.82 433.745,290.928 407.129,293.983C420.437,305.546 439.199,326.162 463.416,355.833L424.146,383.649C411.492,366.414 396.548,342.961 379.313,313.29C363.168,344.052 348.988,367.505 336.77,383.649L298.155,355.833C323.462,324.635 341.57,304.018 352.478,293.983C324.335,288.529 297.61,282.42 272.302,275.657Z" style="fill:rgb(0,186,169);"/>
    </g>
    <g transform="matrix(-0.661562,1.14837,1.95451,1.12597,182.137,-274.739)">
        <path d="M241.051,95.637C220.1,95.637 203.117,112.62 203.117,133.571C203.117,154.521 220.1,171.505 241.051,171.505L241.051,95.637Z" style="fill:rgb(0,186,169);"/>
    </g>
    <g transform="matrix(0.661562,1.14837,-1.95451,1.12597,211.685,-274.739)">
        <path d="M241.051,95.637C220.1,95.637 203.117,112.62 203.117,133.571C203.117,154.521 220.1,171.505 241.051,171.505L241.051,95.637Z" style="fill:rgb(0,186,169);"/>
    </g>
    <g transform="matrix(6.12323e-17,1,-1.56995,9.61316e-17,327.602,-295.857)">
        <path d="M384.755,16.771C352.871,16.771 326.986,45.65 326.986,81.219C326.986,116.789 352.871,145.667 384.755,145.667C364.666,137.72 348.357,111.578 348.357,81.219C348.357,50.861 364.666,24.719 384.755,16.771Z" style="fill:rgb(0,186,169);"/>
    </g>
    <g transform="matrix(0.863753,-0.503915,-0.503915,-0.863753,294.204,1033.31)">
        <path d="M290.922,523.673L262.204,523.673L269.383,466.237L283.742,466.237L290.922,523.673Z" style="fill:rgb(0,186,169);"/>
    </g>
    <g transform="matrix(-0.863753,-0.503915,0.503915,-0.863753,100.03,1033.31)">
        <path d="M290.922,523.673L262.204,523.673L269.383,466.237L283.742,466.237L290.922,523.673Z" style="fill:rgb(0,186,169);"/>
    </g>
</svg>
